<svg width="91" height="46" viewBox="0 0 91 46" fill="none" xmlns="http://www.w3.org/2000/svg">
    <g clip-path="url(#clip0_2906_22252)">
        <path d="M19.7921 11.2314L19.3545 11.6602L19.8563 11.9435L19.7921 11.2314Z" fill="#DFDCDD"/>
        <path d="M16.8093 10.2283H16.8615V9.95296L19.471 7.39981L19.3948 6.58548L16.8615 9.07175V8.67835L19.3667 6.22749L19.2703 5.42889L16.8615 7.81288V7.41948L19.2703 5.05909L19.198 4.24476L16.8615 6.55007V6.15667L19.1378 3.93398L19.0656 3.14718L16.8615 5.28727V4.94108L19.0575 2.78919L18.9612 1.96699L16.8615 4.05593V3.66253L18.9531 1.61293L18.8688 0.786795L16.8615 2.75378L16.8294 2.40759L18.1101 1.14085C18.5517 1.02283 18.8407 0.845805 18.8407 0.649106C18.8407 0.291114 17.9294 0 16.8093 0C15.6892 0 14.7779 0.291114 14.7779 0.649106L13.7622 11.9436L15.8538 10.7634L16.8093 10.2283Z" fill="#DFDCDD"/>
        <path d="M18.3149 11.0701L19.6598 9.75219L19.5875 8.92212L17.7288 10.7357L17.7649 10.7554L18.3149 11.0701Z" fill="#DFDCDD"/>
        <path d="M19.7602 10.8814L19.6919 10.0828L18.5518 11.2039L19.1098 11.5187L19.7602 10.8814Z" fill="#DFDCDD"/>
        <path d="M19.5513 8.56433L19.479 7.75L16.9097 10.2717L17.4797 10.5943L19.5513 8.56433Z" fill="#DFDCDD"/>
        <path d="M29.4394 17.1443L29.2869 17.2938L29.4635 17.3921L29.4394 17.1443Z" fill="#DFDCDD"/>
        <path d="M29.4153 16.8886L29.3632 16.2788L28.6807 16.9515L29.1062 17.1915L29.4153 16.8886Z" fill="#DFDCDD"/>
        <path d="M29.2628 15.1536L29.2066 14.5596L27.4763 16.2669L27.8898 16.499L29.2628 15.1536Z" fill="#DFDCDD"/>
        <path d="M29.3389 16.0189L29.2827 15.4131L28.0703 16.6051L28.4959 16.8451L29.3389 16.0189Z" fill="#DFDCDD"/>
        <path d="M29.1865 14.312L29.1303 13.6943L27.0829 15.6888V15.4056L29.0902 13.4386L29.034 12.8328L27.0668 14.7644V14.4811L29.0139 12.5731L28.9577 11.9673L27.0668 13.8202V13.537L28.9336 11.7077L28.9055 11.0861L27.0829 12.8643V12.5889L28.8734 10.8343L28.8172 10.2285L27.0829 11.9201V11.6408L28.7971 9.96098L28.7409 9.36301L27.0829 10.9799V10.7202L28.7208 9.11517L28.6646 8.49754L27.0829 10.0711V9.79181L28.6405 8.2615L28.5843 7.636L27.0829 9.1073L27.0588 8.84766L28.0303 7.89957C28.3595 7.80909 28.5723 7.67927 28.5723 7.52978C28.5723 7.26227 27.8938 7.0459 27.0588 7.0459C26.2237 7.0459 25.5453 7.26227 25.5453 7.52978L24.8909 14.7998L27.2997 16.1649L29.1865 14.312Z" fill="#DFDCDD"/>
        <path d="M8.68759 14.3118L8.63139 13.6942L6.58392 15.6887V15.4054L8.59124 13.4385L8.53905 12.8326L6.58392 14.7485V14.4652L8.53102 12.5572L8.47482 11.9514L6.58392 13.8043V13.5211L8.45474 11.6918L8.39854 11.0859L6.58392 12.8641V12.5887L8.37445 10.8342L8.32226 10.2283L6.58392 11.9199V11.6406L8.29817 9.96081L8.24598 9.36285L6.58392 10.9797V10.7201L8.22189 9.11501L8.16569 8.49738L6.58392 10.071V9.79165L8.14562 8.26134L8.08941 7.63583L6.58392 9.09534L6.55983 8.8357L7.53137 7.88761C7.86058 7.79713 8.07335 7.66731 8.07335 7.51782C8.07335 7.2503 7.39889 7.03394 6.55983 7.03394C5.72077 7.03394 5.04631 7.2503 5.04631 7.51782L4.16309 17.3921L7.44707 15.5274L8.68759 14.3118Z" fill="#DFDCDD"/>
        <path d="M8.71182 14.5596L8.10962 15.1536L8.73189 14.7995L8.71182 14.5596Z" fill="#DFDCDD"/>
        <path d="M0 21.9125V36.4682L16.8093 46.0041V12.3726L0 21.9125Z" fill="#A1A1A3"/>
        <path d="M33.5464 21.8692L16.8093 12.3726V46.0002L33.6146 36.4642L33.5464 21.8692Z" fill="#F4F3F2"/>
        <path d="M20.5149 34.9222V33.026L27.2796 29.1864L20.5149 25.3508V23.4507L30.6278 29.1864L20.5149 34.9222Z" fill="#221F20"/>
        <path d="M13.0797 25.3508L6.31501 29.1864L13.0797 33.026V34.9222L2.9668 29.1864L13.0797 23.4507V25.3508Z" fill="#221F20"/>
        <path d="M43.5026 23.9972V25.138C43.5037 25.2716 43.4778 25.4041 43.4264 25.5279C43.3751 25.6517 43.2994 25.7644 43.2035 25.8594C43.1076 25.9544 42.9936 26.03 42.8678 26.0817C42.7421 26.1334 42.6072 26.1603 42.4708 26.1608H39.2832C39.1468 26.1614 39.0117 26.1355 38.8856 26.0847C38.7595 26.0339 38.6448 25.9593 38.5482 25.865C38.4516 25.7707 38.3749 25.6586 38.3226 25.5352C38.2703 25.4118 38.2434 25.2795 38.2434 25.1459V24.6777H39.4197V24.9138C39.4197 24.9409 39.4307 24.9669 39.4503 24.9861C39.4698 25.0053 39.4964 25.0161 39.5241 25.0161H42.2219C42.2496 25.0161 42.2762 25.0053 42.2957 24.9861C42.3153 24.9669 42.3263 24.9409 42.3263 24.9138V24.3906C42.3263 24.3634 42.3153 24.3374 42.2957 24.3182C42.2762 24.299 42.2496 24.2883 42.2219 24.2883H39.0624C38.8494 24.2883 38.6452 24.2054 38.4946 24.0578C38.3441 23.9103 38.2595 23.7102 38.2595 23.5015V22.3055C38.2589 22.1714 38.2854 22.0385 38.3375 21.9144C38.3895 21.7904 38.466 21.6776 38.5626 21.5825C38.6592 21.4875 38.774 21.4121 38.9004 21.3606C39.0268 21.3092 39.1624 21.2827 39.2993 21.2827H42.4869C42.6234 21.2832 42.7585 21.3101 42.8845 21.3618C43.0104 21.4135 43.1248 21.4889 43.221 21.5839C43.3171 21.6789 43.3933 21.7915 43.4451 21.9153C43.4968 22.0391 43.5232 22.1717 43.5227 22.3055V22.7776H42.3464V22.5416C42.3464 22.5145 42.3354 22.4884 42.3158 22.4693C42.2962 22.4501 42.2697 22.4393 42.242 22.4393H39.5241C39.4964 22.4393 39.4698 22.4501 39.4503 22.4693C39.4307 22.4884 39.4197 22.5145 39.4197 22.5416V23.0805C39.4191 23.0941 39.4214 23.1077 39.4265 23.1203C39.4315 23.133 39.4392 23.1445 39.449 23.1541C39.4588 23.1637 39.4706 23.1712 39.4835 23.1762C39.4964 23.1811 39.5102 23.1834 39.5241 23.1828H42.6836C42.7928 23.1806 42.9013 23.2003 43.0025 23.2406C43.1037 23.2809 43.1954 23.341 43.272 23.4172C43.3487 23.4934 43.4087 23.5842 43.4483 23.6839C43.488 23.7836 43.5064 23.8902 43.5026 23.9972Z" fill="#FFCC01"/>
        <path d="M49.9903 22.4514V25.0007C49.9903 25.3137 49.8634 25.6138 49.6375 25.8352C49.4117 26.0565 49.1053 26.1808 48.7859 26.1808H45.7669C45.4475 26.1808 45.1411 26.0565 44.9153 25.8352C44.6894 25.6138 44.5625 25.3137 44.5625 25.0007V22.4514C44.5625 22.1384 44.6894 21.8382 44.9153 21.6169C45.1411 21.3956 45.4475 21.2712 45.7669 21.2712H48.7859C49.1053 21.2712 49.4117 21.3956 49.6375 21.6169C49.8634 21.8382 49.9903 22.1384 49.9903 22.4514ZM48.814 22.6796C48.8162 22.6474 48.8117 22.6152 48.8009 22.5848C48.7901 22.5543 48.7731 22.5263 48.751 22.5025C48.7289 22.4786 48.7021 22.4593 48.6722 22.4458C48.6424 22.4323 48.61 22.4249 48.5771 22.4239H46.0238C45.9589 22.4239 45.8966 22.4492 45.8507 22.4942C45.8047 22.5392 45.7789 22.6002 45.7789 22.6639V24.7843C45.7784 24.8161 45.7843 24.8478 45.7964 24.8773C45.8085 24.9069 45.8264 24.9338 45.8492 24.9565C45.872 24.9792 45.8992 24.9972 45.9292 25.0096C45.9592 25.0219 45.9913 25.0282 46.0238 25.0282H48.5771C48.6432 25.0282 48.7065 25.0025 48.7532 24.9568C48.7998 24.911 48.8261 24.849 48.8261 24.7843L48.814 22.6796Z" fill="#FFCC01"/>
        <path d="M51.0703 21.2827H55.7112V22.3764H52.3309V23.2104H55.1412V24.3119H52.3309V26.1569H51.0703V21.2827Z" fill="#FFCC01"/>
        <path d="M61.5806 21.2827V22.4236H59.7098V26.153H58.4612V22.4236H56.6064V21.2827H61.5806Z" fill="#FFCC01"/>
        <path d="M68.1847 21.2827H69.3891L67.9679 26.1687H66.4464L65.8402 23.7218L65.234 26.1648H63.7164L62.2832 21.2827H63.4876L64.4792 24.5086L65.2821 21.2827H66.3541L67.157 24.5086L68.1847 21.2827Z" fill="#FFCC01"/>
        <path d="M73.3115 25.4213H70.8384L70.4932 26.1687H69.2446L71.3483 21.2827H72.8016L74.9013 26.1687H73.6567L73.3115 25.4213ZM72.8177 24.3434L72.075 22.4865L71.3282 24.3434H72.8177Z" fill="#FFCC01"/>
        <path d="M80.8952 22.3016V23.7965C80.8937 24.0477 80.798 24.2896 80.6262 24.4761C80.4544 24.6625 80.2186 24.7805 79.9638 24.8076L80.8952 26.1687H79.5101L78.5827 24.8115H76.9528V26.1687H75.7083V21.2827H79.8554C80.1312 21.2827 80.3956 21.3901 80.5906 21.5811C80.7856 21.7722 80.8952 22.0314 80.8952 22.3016ZM79.7149 22.5377C79.7149 22.5244 79.7122 22.5113 79.7069 22.4991C79.7016 22.4869 79.6938 22.4759 79.6841 22.4667C79.6743 22.4575 79.6628 22.4503 79.6501 22.4456C79.6375 22.4409 79.624 22.4388 79.6105 22.4393H76.9528V23.6588H79.6105C79.6382 23.6588 79.6647 23.6481 79.6843 23.6289C79.7039 23.6097 79.7149 23.5837 79.7149 23.5566V22.5377Z" fill="#FFCC01"/>
        <path d="M81.979 21.2827H86.5477V22.3685H83.2356V23.1553H85.9937V24.3158H83.2356V25.1026H86.5477V26.1884H81.979V21.2827Z" fill="#FFCC01"/>
        <path d="M38.2395 27.8564H42.8804V28.9462H39.5001V29.7959H42.3104V30.8935H39.5001V32.7424H38.2395V27.8564Z" fill="#FFCC01"/>
        <path d="M46.895 31.9911H44.4179L44.0767 32.7424H42.8281L44.9278 27.8564H46.3851L48.4848 32.7424H47.2402L46.895 31.9911ZM46.4012 30.9171L45.6585 29.0563L44.9117 30.9171H46.4012Z" fill="#FFCC01"/>
        <path d="M54.4869 28.8753V29.552H53.3066V29.1114C53.3066 29.0843 53.2956 29.0582 53.276 29.0391C53.2564 29.0199 53.2299 29.0091 53.2022 29.0091H50.5846C50.5709 29.0091 50.5574 29.0117 50.5447 29.0169C50.532 29.022 50.5205 29.0296 50.5108 29.0391C50.5011 29.0486 50.4934 29.0598 50.4882 29.0722C50.483 29.0847 50.4803 29.098 50.4803 29.1114V31.4718C50.4803 31.4852 50.483 31.4985 50.4882 31.5109C50.4934 31.5233 50.5011 31.5346 50.5108 31.5441C50.5205 31.5536 50.532 31.5611 50.5447 31.5663C50.5574 31.5714 50.5709 31.5741 50.5846 31.5741H53.2142C53.2419 31.5741 53.2685 31.5633 53.288 31.5441C53.3076 31.5249 53.3186 31.4989 53.3186 31.4718V31.0508H54.4989V31.7235C54.4989 31.9938 54.3894 32.2529 54.1944 32.444C53.9994 32.6351 53.7349 32.7424 53.4591 32.7424H50.3397C50.2034 32.7424 50.0684 32.7161 49.9424 32.6648C49.8165 32.6136 49.7021 32.5384 49.6059 32.4438C49.5097 32.3491 49.4335 32.2368 49.3817 32.1132C49.3298 31.9896 49.3034 31.8572 49.304 31.7235V28.8753C49.3034 28.7417 49.3298 28.6093 49.3817 28.4857C49.4335 28.3621 49.5097 28.2498 49.6059 28.1551C49.7021 28.0604 49.8165 27.9853 49.9424 27.9341C50.0684 27.8828 50.2034 27.8564 50.3397 27.8564H53.4591C53.7328 27.8596 53.9942 27.9683 54.1866 28.159C54.379 28.3498 54.4869 28.6072 54.4869 28.8753Z" fill="#FFCC01"/>
        <path d="M60.3602 27.8564V29.0091H58.4894V32.7424H57.2449V29.0091H55.374V27.8564H60.3602Z" fill="#FFCC01"/>
        <path d="M66.6431 29.0252V31.5744C66.6431 31.8874 66.5162 32.1876 66.2904 32.4089C66.0645 32.6302 65.7582 32.7546 65.4387 32.7546H62.4197C62.1003 32.7546 61.794 32.6302 61.5681 32.4089C61.3422 32.1876 61.2153 31.8874 61.2153 31.5744V29.0252C61.2153 28.7122 61.3422 28.412 61.5681 28.1906C61.794 27.9693 62.1003 27.845 62.4197 27.845H65.4387C65.7582 27.845 66.0645 27.9693 66.2904 28.1906C66.5162 28.412 66.6431 28.7122 66.6431 29.0252ZM65.4628 29.2533C65.4634 29.2215 65.4574 29.1899 65.4454 29.1603C65.4333 29.1307 65.4153 29.1038 65.3925 29.0811C65.3697 29.0584 65.3426 29.0404 65.3126 29.0281C65.2826 29.0158 65.2504 29.0094 65.2179 29.0094H62.6646C62.5986 29.0094 62.5353 29.0351 62.4886 29.0809C62.4419 29.1266 62.4157 29.1886 62.4157 29.2533V31.3462C62.4157 31.3782 62.4222 31.41 62.4347 31.4396C62.4472 31.4691 62.4655 31.496 62.4886 31.5187C62.5117 31.5413 62.5392 31.5593 62.5694 31.5716C62.5996 31.5838 62.6319 31.5901 62.6646 31.5901H65.2179C65.2504 31.5901 65.2826 31.5838 65.3126 31.5715C65.3426 31.5592 65.3697 31.5411 65.3925 31.5184C65.4153 31.4957 65.4333 31.4688 65.4454 31.4393C65.4574 31.4097 65.4634 31.3781 65.4628 31.3462V29.2533Z" fill="#FFCC01"/>
        <path d="M72.902 28.8753V30.3663C72.9015 30.6182 72.8062 30.861 72.6344 31.0483C72.4625 31.2356 72.2262 31.3542 71.9706 31.3813L72.902 32.7424H71.517L70.5896 31.3852H68.9596V32.7424H67.7151V27.8564H71.8622C72.138 27.8564 72.4025 27.9638 72.5975 28.1549C72.7925 28.346 72.902 28.6051 72.902 28.8753ZM71.7217 29.1114C71.7217 29.0843 71.7107 29.0582 71.6911 29.0391C71.6716 29.0199 71.645 29.0091 71.6173 29.0091H68.9596V30.2326H71.6173C71.645 30.2326 71.6716 30.2218 71.6911 30.2026C71.7107 30.1834 71.7217 30.1574 71.7217 30.1303V29.1114Z" fill="#FFCC01"/>
        <path d="M77.274 27.8564H78.6389L76.7561 30.9013V32.7424H75.5075V30.9013L73.6287 27.8564H74.9896L76.1338 29.7526L77.274 27.8564Z" fill="#FFCC01"/>
        <path d="M40.03 35.8384V36.1924C40.0292 36.2797 39.9931 36.3632 39.9297 36.4245C39.9931 36.4859 40.0292 36.5693 40.03 36.6566V36.9792C40.03 37.0836 39.9877 37.1836 39.9124 37.2574C39.8371 37.3312 39.735 37.3726 39.6286 37.3726H37.9143V35.4056H39.6085C39.6664 35.4025 39.7244 35.4117 39.7783 35.4326C39.8323 35.4535 39.881 35.4857 39.921 35.5268C39.9611 35.5679 39.9916 35.6171 40.0104 35.6709C40.0292 35.7247 40.0359 35.7818 40.03 35.8384ZM39.5523 35.9092C39.5523 35.8984 39.5482 35.8879 39.5408 35.8799C39.5334 35.8719 39.5231 35.8669 39.5121 35.8659H38.4201V36.1924H39.5121C39.5231 36.1914 39.5334 36.1864 39.5408 36.1784C39.5482 36.1704 39.5523 36.16 39.5523 36.1492V35.9092ZM39.5523 36.6606C39.5523 36.6497 39.5482 36.6393 39.5408 36.6313C39.5334 36.6233 39.5231 36.6183 39.5121 36.6173H38.4201V36.9556H39.5121C39.5228 36.9556 39.533 36.9515 39.5405 36.9441C39.548 36.9367 39.5523 36.9267 39.5523 36.9163V36.6606Z" fill="#DFDCDD"/>
        <path d="M41.7883 35.4294H42.3343L41.5796 36.6529V37.3925H41.0778V36.6529L40.323 35.4294H40.873L41.3507 36.1926L41.7883 35.4294Z" fill="#DFDCDD"/>
        <path d="M45.9476 36.5193V36.9795C45.9476 37.0839 45.9053 37.1839 45.83 37.2577C45.7547 37.3315 45.6526 37.3729 45.5461 37.3729H44.2695C44.163 37.3729 44.0609 37.3315 43.9856 37.2577C43.9103 37.1839 43.868 37.0839 43.868 36.9795V36.7907H44.3418V36.8851C44.3428 36.8959 44.3479 36.9059 44.356 36.9132C44.3642 36.9205 44.3749 36.9245 44.3859 36.9245H45.4699C45.4753 36.9251 45.4808 36.9245 45.486 36.9228C45.4911 36.921 45.4958 36.9181 45.4997 36.9143C45.5036 36.9105 45.5065 36.906 45.5083 36.9009C45.5101 36.8958 45.5107 36.8904 45.51 36.8851V36.6727C45.5101 36.6619 45.506 36.6514 45.4985 36.6434C45.4911 36.6354 45.4809 36.6304 45.4699 36.6294H44.1611C44.0734 36.6294 43.9893 36.5956 43.9269 36.5352C43.8645 36.4748 43.8289 36.3927 43.8279 36.3068V35.8426C43.8279 35.7383 43.8702 35.6382 43.9455 35.5644C44.0208 35.4907 44.1229 35.4492 44.2293 35.4492H45.51C45.6165 35.4492 45.7186 35.4907 45.7939 35.5644C45.8692 35.6382 45.9115 35.7383 45.9115 35.8426V36.0314H45.4378V35.937C45.4378 35.9266 45.4335 35.9166 45.426 35.9092C45.4185 35.9018 45.4083 35.8977 45.3976 35.8977H44.3137C44.3081 35.8971 44.3024 35.8977 44.2971 35.8995C44.2917 35.9012 44.2868 35.904 44.2826 35.9077C44.2785 35.9114 44.2751 35.916 44.2729 35.921C44.2706 35.9261 44.2695 35.9315 44.2695 35.937V36.1534C44.2695 36.1589 44.2706 36.1644 44.2729 36.1694C44.2751 36.1745 44.2785 36.179 44.2826 36.1827C44.2868 36.1864 44.2917 36.1892 44.2971 36.191C44.3024 36.1927 44.3081 36.1933 44.3137 36.1927H45.5823C45.6287 36.1883 45.6755 36.1935 45.7197 36.2079C45.7639 36.2224 45.8045 36.2457 45.839 36.2765C45.8734 36.3073 45.9008 36.3448 45.9196 36.3866C45.9383 36.4284 45.9478 36.4736 45.9476 36.5193Z" fill="#DFDCDD"/>
        <path d="M48.5531 35.9015V36.9244C48.5531 36.9862 48.5406 37.0474 48.5163 37.1044C48.492 37.1615 48.4565 37.2133 48.4117 37.2568C48.3669 37.3003 48.3138 37.3347 48.2554 37.358C48.1969 37.3813 48.1344 37.393 48.0713 37.3925H46.8669C46.7402 37.3925 46.6187 37.3432 46.5291 37.2554C46.4395 37.1676 46.3892 37.0485 46.3892 36.9244V35.9015C46.3892 35.777 46.4394 35.6575 46.5288 35.5691C46.6183 35.4807 46.7398 35.4305 46.8669 35.4294H48.0713C48.1991 35.4294 48.3216 35.4792 48.412 35.5677C48.5023 35.6562 48.5531 35.7763 48.5531 35.9015ZM48.0793 35.992C48.0793 35.9659 48.0688 35.9409 48.0499 35.9225C48.0311 35.904 48.0056 35.8937 47.979 35.8937H46.9713C46.9447 35.8937 46.9191 35.904 46.9003 35.9225C46.8815 35.9409 46.8709 35.9659 46.8709 35.992V36.8339C46.872 36.8593 46.883 36.8833 46.9017 36.9009C46.9204 36.9185 46.9453 36.9283 46.9713 36.9283H47.995C48.021 36.9283 48.0459 36.9185 48.0646 36.9009C48.0833 36.8833 48.0943 36.8593 48.0954 36.8339L48.0793 35.992Z" fill="#DFDCDD"/>
        <path d="M49.4846 36.9283H50.689V37.3925H48.9788V35.4255H49.4766L49.4846 36.9283Z" fill="#DFDCDD"/>
        <path d="M53.1339 35.8858V36.9401C53.1345 36.9997 53.1229 37.0587 53.0999 37.1139C53.0769 37.169 53.0429 37.2191 52.9999 37.2612C52.9569 37.3033 52.9058 37.3366 52.8496 37.3592C52.7933 37.3817 52.733 37.3931 52.6722 37.3925H51.0222V35.4255H52.6722C52.7335 35.4255 52.7942 35.4375 52.8508 35.4607C52.9073 35.4839 52.9586 35.518 53.0016 35.5608C53.0445 35.6037 53.0784 35.6545 53.1011 35.7103C53.1238 35.7661 53.135 35.8257 53.1339 35.8858ZM52.6602 35.992C52.6602 35.9666 52.6502 35.9422 52.6322 35.9238C52.6143 35.9055 52.5898 35.8947 52.5638 35.8937H51.4959V36.9283H52.5638C52.5894 36.9283 52.6139 36.9184 52.632 36.9007C52.65 36.883 52.6602 36.8589 52.6602 36.8339V35.992Z" fill="#DFDCDD"/>
        <path d="M53.5715 37.3925V35.4255H54.0734V37.3925H53.5715Z" fill="#DFDCDD"/>
        <path d="M54.5069 35.4294H56.3416V35.8661H55.0007V36.1926H56.1088V36.6568H55.0007V36.9676H56.3296V37.4043H54.4949L54.5069 35.4294Z" fill="#DFDCDD"/>
        <path d="M58.8588 35.8388V36.4407C58.859 36.5404 58.8206 36.6366 58.7513 36.7096C58.682 36.7826 58.5869 36.8271 58.4854 36.8341L58.8588 37.3809H58.3007L57.9314 36.838H57.277V37.3809H56.7751V35.4139H58.4412C58.4981 35.4115 58.5548 35.421 58.6077 35.4417C58.6605 35.4624 58.7083 35.4939 58.7478 35.5341C58.7873 35.5743 58.8176 35.6222 58.8367 35.6748C58.8558 35.7273 58.8634 35.7832 58.8588 35.8388ZM58.385 35.9372C58.3856 35.9317 58.385 35.9261 58.3832 35.9209C58.3814 35.9157 58.3786 35.9108 58.3748 35.9068C58.371 35.9027 58.3664 35.8994 58.3612 35.8972C58.3561 35.895 58.3505 35.8939 58.3449 35.8939H57.277V36.3856H58.3449C58.3555 36.3856 58.3657 36.3815 58.3733 36.3741C58.3808 36.3667 58.385 36.3567 58.385 36.3463V35.9372Z" fill="#DFDCDD"/>
        <path d="M61.4241 36.5193V36.9795C61.4241 37.0839 61.3818 37.1839 61.3065 37.2577C61.2312 37.3315 61.1291 37.3729 61.0227 37.3729H59.746C59.6916 37.3756 59.6372 37.3674 59.5862 37.3488C59.5351 37.3303 59.4885 37.3017 59.4491 37.2649C59.4096 37.2281 59.3782 37.1838 59.3568 37.1348C59.3354 37.0857 59.3244 37.0329 59.3245 36.9795V36.7907H59.7982V36.8851C59.7991 36.8953 59.8036 36.9048 59.811 36.9119C59.8183 36.9191 59.828 36.9236 59.8383 36.9245H60.9263C60.937 36.9245 60.9472 36.9203 60.9547 36.9129C60.9622 36.9056 60.9665 36.8956 60.9665 36.8851V36.6727C60.9665 36.6612 60.9618 36.6502 60.9535 36.6421C60.9452 36.634 60.934 36.6294 60.9223 36.6294H59.6537C59.5664 36.6294 59.4826 36.5954 59.4209 36.5349C59.3591 36.4744 59.3245 36.3924 59.3245 36.3068V35.8426C59.3245 35.7383 59.3668 35.6382 59.442 35.5644C59.5173 35.4907 59.6195 35.4492 59.7259 35.4492H61.0066C61.1131 35.4492 61.2152 35.4907 61.2905 35.5644C61.3658 35.6382 61.4081 35.7383 61.4081 35.8426V36.0314H60.9343V35.937C60.9343 35.9266 60.9301 35.9166 60.9226 35.9092C60.915 35.9018 60.9048 35.8977 60.8942 35.8977H59.8183C59.8076 35.8977 59.7974 35.9018 59.7899 35.9092C59.7823 35.9166 59.7781 35.9266 59.7781 35.937V36.1534C59.7781 36.1638 59.7823 36.1738 59.7899 36.1812C59.7974 36.1886 59.8076 36.1927 59.8183 36.1927H61.0909C61.1793 36.1927 61.264 36.2271 61.3265 36.2884C61.389 36.3496 61.4241 36.4327 61.4241 36.5193Z" fill="#DFDCDD"/>
        <path d="M61.7574 37.1172C61.7566 37.0616 61.7727 37.0071 61.8037 36.9606C61.8347 36.914 61.8792 36.8776 61.9314 36.856C61.9837 36.8344 62.0413 36.8285 62.097 36.8392C62.1527 36.8498 62.2038 36.8765 62.2439 36.9158C62.284 36.9551 62.3112 37.0052 62.3221 37.0598C62.333 37.1143 62.327 37.1708 62.3049 37.222C62.2829 37.2732 62.2457 37.3168 62.1982 37.3471C62.1507 37.3775 62.0951 37.3934 62.0384 37.3926C61.9638 37.3926 61.8924 37.3636 61.8397 37.3119C61.787 37.2603 61.7574 37.1902 61.7574 37.1172Z" fill="#DFDCDD"/>
        <path d="M63.885 35.4294H65.7478V35.87H64.3909V36.1926H65.523V36.6372H64.3909V37.3768H63.885V35.4294Z" fill="#DFDCDD"/>
        <path d="M68.3535 35.9015V36.9244C68.3535 36.9862 68.341 37.0474 68.3167 37.1044C68.2925 37.1615 68.2569 37.2133 68.2121 37.2568C68.1673 37.3003 68.1142 37.3347 68.0558 37.358C67.9973 37.3813 67.9348 37.393 67.8717 37.3925H66.6673C66.6042 37.393 66.5417 37.3813 66.4832 37.358C66.4248 37.3347 66.3717 37.3003 66.3269 37.2568C66.2821 37.2133 66.2465 37.1615 66.2223 37.1044C66.198 37.0474 66.1855 36.9862 66.1855 36.9244V35.9015C66.1855 35.7763 66.2363 35.6562 66.3267 35.5677C66.417 35.4792 66.5395 35.4294 66.6673 35.4294H67.8717C67.9995 35.4294 68.122 35.4792 68.2124 35.5677C68.3027 35.6562 68.3535 35.7763 68.3535 35.9015ZM67.8797 35.992C67.8797 35.9659 67.8692 35.9409 67.8503 35.9225C67.8315 35.904 67.806 35.8937 67.7794 35.8937H66.7556C66.729 35.8937 66.7035 35.904 66.6847 35.9225C66.6658 35.9409 66.6553 35.9659 66.6553 35.992V36.8339C66.6563 36.8593 66.6673 36.8833 66.686 36.9009C66.7048 36.9185 66.7297 36.9283 66.7556 36.9283H67.7794C67.8053 36.9283 67.8302 36.9185 67.8489 36.9009C67.8677 36.8833 67.8787 36.8593 67.8797 36.8339V35.992Z" fill="#DFDCDD"/>
        <path d="M70.8665 35.8388V36.4407C70.8668 36.5398 70.8289 36.6354 70.7604 36.7083C70.692 36.7813 70.5979 36.8262 70.4971 36.8341L70.8665 37.3809H70.3124L69.9391 36.838H69.2847V37.3809H68.7869V35.4139H70.4489C70.5058 35.4115 70.5625 35.421 70.6154 35.4417C70.6683 35.4624 70.716 35.4939 70.7555 35.5341C70.795 35.5743 70.8253 35.6222 70.8444 35.6748C70.8636 35.7273 70.8711 35.7832 70.8665 35.8388ZM70.3967 35.9372C70.3967 35.9315 70.3956 35.9259 70.3934 35.9206C70.3912 35.9154 70.3879 35.9106 70.3838 35.9066C70.3797 35.9025 70.3748 35.8994 70.3695 35.8972C70.3641 35.895 70.3584 35.8939 70.3526 35.8939H69.2847V36.3856H70.3526C70.3636 36.3857 70.3743 36.3817 70.3825 36.3744C70.3906 36.3671 70.3957 36.3571 70.3967 36.3463V35.9372Z" fill="#DFDCDD"/>
        <path d="M74.6243 36.5193V36.9795C74.6243 37.0839 74.582 37.1839 74.5067 37.2577C74.4314 37.3315 74.3293 37.3729 74.2228 37.3729H72.9461C72.8397 37.3729 72.7376 37.3315 72.6623 37.2577C72.587 37.1839 72.5447 37.0839 72.5447 36.9795V36.7907H73.0184V36.8851C73.0193 36.8953 73.0238 36.9048 73.0312 36.9119C73.0385 36.9191 73.0482 36.9236 73.0586 36.9245H74.1465C74.1572 36.9245 74.1674 36.9203 74.1749 36.9129C74.1824 36.9056 74.1867 36.8956 74.1867 36.8851V36.6727C74.1867 36.667 74.1855 36.6614 74.1833 36.6561C74.1811 36.6509 74.1778 36.6461 74.1737 36.6421C74.1696 36.6381 74.1648 36.6349 74.1594 36.6327C74.154 36.6305 74.1483 36.6294 74.1425 36.6294H72.8739C72.7866 36.6294 72.7028 36.5954 72.6411 36.5349C72.5794 36.4744 72.5447 36.3924 72.5447 36.3068V35.8426C72.5447 35.7383 72.587 35.6382 72.6623 35.5644C72.7376 35.4907 72.8397 35.4492 72.9461 35.4492H74.2268C74.3333 35.4492 74.4354 35.4907 74.5107 35.5644C74.586 35.6382 74.6283 35.7383 74.6283 35.8426V36.0314H74.1505V35.937C74.1505 35.9266 74.1463 35.9166 74.1388 35.9092C74.1312 35.9018 74.121 35.8977 74.1104 35.8977H73.0224C73.0118 35.8977 73.0016 35.9018 72.994 35.9092C72.9865 35.9166 72.9823 35.9266 72.9823 35.937V36.1534C72.9823 36.1638 72.9865 36.1738 72.994 36.1812C73.0016 36.1886 73.0118 36.1927 73.0224 36.1927H74.2951C74.3827 36.1938 74.4665 36.2286 74.5281 36.2898C74.5897 36.3509 74.6243 36.4333 74.6243 36.5193Z" fill="#DFDCDD"/>
        <path d="M77.2258 35.9015V36.9244C77.2258 37.0485 77.1755 37.1676 77.0859 37.2554C76.9963 37.3432 76.8748 37.3925 76.7481 37.3925H75.5437C75.4184 37.3904 75.2989 37.3402 75.2111 37.2526C75.1232 37.1651 75.074 37.0472 75.074 36.9244V35.9015C75.0735 35.8397 75.0854 35.7784 75.1092 35.7212C75.133 35.6639 75.1681 35.6118 75.2125 35.5679C75.2569 35.5241 75.3098 35.4892 75.368 35.4655C75.4262 35.4417 75.4887 35.4294 75.5517 35.4294H76.7561C76.8821 35.4315 77.0022 35.4823 77.0902 35.5707C77.1781 35.6591 77.2269 35.778 77.2258 35.9015ZM76.7561 35.992C76.7561 35.9659 76.7455 35.9409 76.7267 35.9225C76.7079 35.904 76.6824 35.8937 76.6558 35.8937H75.632C75.6054 35.8937 75.5799 35.904 75.5611 35.9225C75.5422 35.9409 75.5317 35.9659 75.5317 35.992V36.8339C75.5327 36.8593 75.5437 36.8833 75.5624 36.9009C75.5811 36.9185 75.6061 36.9283 75.632 36.9283H76.6558C76.6817 36.9283 76.7066 36.9185 76.7253 36.9009C76.7441 36.8833 76.7551 36.8593 76.7561 36.8339V35.992Z" fill="#DFDCDD"/>
        <path d="M78.1611 36.9283H79.3655V37.3925H77.6753V35.4255H78.1771L78.1611 36.9283Z" fill="#DFDCDD"/>
        <path d="M81.8104 35.8858V36.9401C81.8104 36.9999 81.7984 37.059 81.7749 37.1142C81.7515 37.1693 81.7171 37.2194 81.6738 37.2614C81.6305 37.3035 81.5791 37.3367 81.5226 37.3592C81.4662 37.3817 81.4057 37.393 81.3447 37.3925H79.6987V35.4255H81.3447C81.4062 35.4255 81.4671 35.4375 81.5239 35.4606C81.5806 35.4838 81.6322 35.5178 81.6755 35.5606C81.7188 35.6034 81.753 35.6541 81.7761 35.71C81.7993 35.7658 81.811 35.8256 81.8104 35.8858ZM81.3367 35.992C81.3367 35.9659 81.3261 35.9409 81.3073 35.9225C81.2885 35.904 81.263 35.8937 81.2363 35.8937H80.1725V36.9283H81.2363C81.2623 36.9283 81.2872 36.9185 81.3059 36.9009C81.3246 36.8833 81.3357 36.8593 81.3367 36.8339V35.992Z" fill="#DFDCDD"/>
        <path d="M82.248 37.3925V35.4255H82.7499V37.3925H82.248Z" fill="#DFDCDD"/>
        <path d="M83.1833 35.4294H85.0181V35.8661H83.6892V36.1926H84.7972V36.6568H83.6892V36.9676H85.0181V37.4043H83.1833V35.4294Z" fill="#DFDCDD"/>
        <path d="M87.5192 35.8384V36.4403C87.5195 36.5401 87.481 36.6362 87.4117 36.7092C87.3424 36.7823 87.2474 36.8268 87.1458 36.8337L87.5192 37.3806H86.9612L86.5918 36.8377H85.9535V37.3806H85.4517V35.4136H87.1177C87.1733 35.4134 87.2282 35.4245 87.2792 35.4462C87.3301 35.4679 87.3759 35.4998 87.4136 35.5397C87.4513 35.5796 87.4802 35.6268 87.4984 35.6782C87.5166 35.7296 87.5236 35.7842 87.5192 35.8384ZM87.0455 35.9368C87.0455 35.926 87.0414 35.9155 87.034 35.9075C87.0266 35.8995 87.0163 35.8945 87.0053 35.8935H85.9535V36.3853H87.0214C87.0317 36.3844 87.0414 36.38 87.0488 36.3728C87.0561 36.3656 87.0606 36.3561 87.0615 36.3459L87.0455 35.9368Z" fill="#DFDCDD"/>
        <path d="M90.0807 36.5193V36.9795C90.0807 37.0839 90.0384 37.1839 89.9631 37.2577C89.8878 37.3315 89.7857 37.3729 89.6792 37.3729H88.3985C88.2921 37.3729 88.1899 37.3315 88.1147 37.2577C88.0394 37.1839 87.9971 37.0839 87.9971 36.9795V36.7907H88.4708V36.8851C88.4708 36.8956 88.475 36.9056 88.4826 36.9129C88.4901 36.9203 88.5003 36.9245 88.5109 36.9245H89.5949C89.6005 36.925 89.6062 36.9244 89.6115 36.9227C89.6168 36.9209 89.6218 36.9181 89.6259 36.9144C89.6301 36.9107 89.6334 36.9062 89.6357 36.9011C89.6379 36.8961 89.6391 36.8906 89.6391 36.8851V36.6727C89.6396 36.6672 89.639 36.6617 89.6372 36.6564C89.6355 36.6512 89.6326 36.6464 89.6288 36.6423C89.625 36.6382 89.6204 36.635 89.6153 36.6327C89.6101 36.6305 89.6045 36.6294 89.5989 36.6294H88.3303C88.243 36.6294 88.1592 36.5954 88.0975 36.5349C88.0358 36.4744 88.0011 36.3924 88.0011 36.3068V35.8426C88.0011 35.7383 88.0434 35.6382 88.1187 35.5644C88.194 35.4907 88.2961 35.4492 88.4025 35.4492H89.6792C89.7857 35.4492 89.8878 35.4907 89.9631 35.5644C90.0384 35.6382 90.0807 35.7383 90.0807 35.8426V36.0314H89.611V35.937C89.611 35.9315 89.6098 35.9261 89.6076 35.921C89.6053 35.916 89.602 35.9114 89.5978 35.9077C89.5936 35.904 89.5887 35.9012 89.5834 35.8995C89.578 35.8977 89.5724 35.8971 89.5668 35.8977H88.4828C88.4774 35.8971 88.4719 35.8976 88.4667 35.8994C88.4616 35.9011 88.4569 35.904 88.453 35.9078C88.4492 35.9116 88.4462 35.9162 88.4444 35.9213C88.4426 35.9263 88.4421 35.9317 88.4427 35.937V36.1534C88.4421 36.1587 88.4426 36.1641 88.4444 36.1692C88.4462 36.1742 88.4492 36.1788 88.453 36.1826C88.4569 36.1864 88.4616 36.1893 88.4667 36.191C88.4719 36.1928 88.4774 36.1934 88.4828 36.1927H89.7515C89.795 36.1927 89.8382 36.2012 89.8784 36.2177C89.9186 36.2341 89.9551 36.2582 89.9857 36.2886C90.0163 36.319 90.0405 36.355 90.0568 36.3946C90.0731 36.4342 90.0812 36.4766 90.0807 36.5193Z" fill="#DFDCDD"/>
        <path d="M90.4338 37.1174C90.4338 37.0444 90.4634 36.9743 90.5162 36.9227C90.5689 36.8711 90.6403 36.842 90.7149 36.842C90.7894 36.842 90.8609 36.8711 90.9136 36.9227C90.9663 36.9743 90.9959 37.0444 90.9959 37.1174C90.9959 37.1905 90.9663 37.2605 90.9136 37.3121C90.8609 37.3638 90.7894 37.3928 90.7149 37.3928C90.6403 37.3928 90.5689 37.3638 90.5162 37.3121C90.4634 37.2605 90.4338 37.1905 90.4338 37.1174Z" fill="#DFDCDD"/>
    </g>
    <defs>
        <clipPath id="clip0_2906_22252">
            <rect width="91" height="46" fill="white"/>
        </clipPath>
    </defs>
</svg>
